<?xml version="1.0" encoding="UTF-8" standalone="no"?>
<!-- Created with Inkscape (http://www.inkscape.org/) -->

<svg
   xmlns:dc="http://purl.org/dc/elements/1.1/"
   xmlns:cc="http://creativecommons.org/ns#"
   xmlns:rdf="http://www.w3.org/1999/02/22-rdf-syntax-ns#"
   xmlns:svg="http://www.w3.org/2000/svg"
   xmlns="http://www.w3.org/2000/svg"
   xmlns:sodipodi="http://sodipodi.sourceforge.net/DTD/sodipodi-0.dtd"
   xmlns:inkscape="http://www.inkscape.org/namespaces/inkscape"
   width="64"
   height="64"
   viewBox="0 0 16.933333 16.933334"
   version="1.1"
   id="svg848"
   inkscape:version="0.92.2 (5c3e80d, 2017-08-06)"
   sodipodi:docname="icon.svg">
  <defs
     id="defs842">
    <inkscape:path-effect
       effect="gears"
       id="path-effect1407"
       is_visible="true"
       teeth="6"
       phi="20"
       min_radius="2" />
    <inkscape:path-effect
       effect="gears"
       id="path-effect1401"
       is_visible="true"
       teeth="9"
       phi="20"
       min_radius="3" />
  </defs>
  <sodipodi:namedview
     id="base"
     pagecolor="#ffffff"
     bordercolor="#666666"
     borderopacity="1.0"
     inkscape:pageopacity="0.0"
     inkscape:pageshadow="2"
     inkscape:zoom="5.6568543"
     inkscape:cx="65.781815"
     inkscape:cy="25.709509"
     inkscape:document-units="px"
     inkscape:current-layer="layer1"
     showgrid="false"
     units="px"
     inkscape:snap-bbox="true"
     inkscape:snap-bbox-midpoints="true"
     inkscape:snap-smooth-nodes="true"
     inkscape:snap-object-midpoints="true"
     inkscape:window-width="1920"
     inkscape:window-height="1027"
     inkscape:window-x="-8"
     inkscape:window-y="-8"
     inkscape:window-maximized="1" />
  <metadata
     id="metadata845">
    <rdf:RDF>
      <cc:Work
         rdf:about="">
        <dc:format>image/svg+xml</dc:format>
        <dc:type
           rdf:resource="http://purl.org/dc/dcmitype/StillImage" />
        <dc:title></dc:title>
      </cc:Work>
    </rdf:RDF>
  </metadata>
  <g
     inkscape:label="レイヤー 1"
     inkscape:groupmode="layer"
     id="layer1"
     transform="translate(0,-280.06665)">
    <path
       inkscape:connector-curvature="0"
       id="path851"
       d="m 12.278121,295.39239 c -0.01592,-0.002 -0.410106,0.18524 -0.604011,0.28757 -0.06763,0.0356 -0.12468,0.0622 -0.126764,0.0588 -0.0048,-0.008 -0.06615,0.0152 -0.266031,0.0977 -0.171905,0.0709 -0.25833,0.10228 -0.276191,0.10015 -0.01686,-0.002 -0.04431,0.007 -0.223904,0.0717 -0.189654,0.0686 -0.175297,0.0642 -0.274532,0.0842 -0.160502,0.0325 -0.207281,0.0431 -0.24569,0.0558 -0.02131,0.007 -0.08574,0.0217 -0.14315,0.0328 -0.05741,0.0115 -0.111404,0.0271 -0.1198738,0.036 -0.0078,0.009 -0.07313,0.0148 -0.143539,0.0137 -0.07041,-7.6e-4 -0.122043,0.008 -0.114586,0.0192 0.0075,0.0118 -0.03895,0.0205 -0.1032017,0.0194 -0.06415,-7.9e-4 -0.132808,0.009 -0.152498,0.0206 -0.01994,0.0123 -0.0915,0.0216 -0.159601,0.0204 -0.0681,-7.6e-4 -0.1447607,0.008 -0.1704157,0.0186 -0.02571,0.0113 -0.144004,0.0168 -0.262982,0.0125 -0.118983,-0.004 -0.2335023,0.002 -0.2544843,0.0155 -0.04161,0.0263 -0.4511296,0.0187 -0.5447464,-0.0101 -0.031972,-0.0101 -0.1569948,-0.0206 -0.2779268,-0.024 -0.3080263,-0.009 -0.4293445,-0.0278 -1.0269274,-0.16267 -0.6360921,-0.14355 -0.8573517,-0.20435 -0.9638895,-0.26486 -0.044402,-0.0253 -0.1129037,-0.0537 -0.1522021,-0.063 -0.03928,-0.0101 -0.1722672,-0.0641 -0.2955038,-0.12152 -0.1232307,-0.0574 -0.2374818,-0.0959 -0.253882,-0.0856 -0.016278,0.0101 -0.030009,-0.002 -0.030215,-0.0278 -2.123e-4,-0.0255 -0.013316,-0.0383 -0.029229,-0.0283 -0.031487,0.0198 -0.3830152,-0.18142 -0.3986984,-0.22835 -0.00533,-0.016 -0.023561,-0.0202 -0.040446,-0.0101 -0.016531,0.0113 -0.099351,-0.032 -0.183377,-0.0949 -0.083921,-0.0629 -0.1664991,-0.10564 -0.1835392,-0.0949 -0.016587,0.0113 -0.031057,-7e-5 -0.031272,-0.024 -2.382e-4,-0.024 -0.064455,-0.0782 -0.1427318,-0.12062 -0.078222,-0.0423 -0.1314212,-0.0843 -0.1181258,-0.0931 0.012908,-0.009 0.00186,-0.0168 -0.026522,-0.0184 -0.053904,-0.003 -0.3150885,-0.19361 -0.4032571,-0.29494 -0.02888,-0.0333 -0.067145,-0.0618 -0.084927,-0.0634 -0.017871,-0.002 -0.068327,-0.0435 -0.112439,-0.093 -0.043998,-0.0494 -0.1832309,-0.18284 -0.3093356,-0.29639 -0.1261048,-0.11356 -0.2858767,-0.27607 -0.3550701,-0.36117 -0.06917,-0.0851 -0.138816,-0.16144 -0.1547453,-0.16968 -0.1520572,-0.0786 -1.056556,-1.52586 -1.2021482,-1.92352 -0.022966,-0.0627 -0.061262,-0.15446 -0.085076,-0.2038 -0.023801,-0.0493 -0.042265,-0.0956 -0.041092,-0.10284 0.00145,-0.007 -0.013014,-0.0456 -0.031705,-0.0854 -0.018587,-0.0397 -0.033106,-0.0779 -0.032193,-0.085 0.00133,-0.007 -0.020143,-0.0623 -0.046632,-0.12271 -0.026579,-0.0605 -0.062029,-0.18073 -0.0788,-0.26722 -0.016755,-0.0865 -0.053494,-0.19373 -0.081621,-0.23832 -0.028083,-0.0446 -0.041988,-0.0999 -0.030763,-0.12292 0.010733,-0.0233 0.00581,-0.065 -0.012142,-0.0933 -0.017868,-0.0283 -0.043133,-0.12182 -0.056008,-0.20766 -0.012868,-0.0859 -0.031965,-0.20343 -0.042322,-0.26126 -0.010408,-0.0579 -0.022051,-0.13974 -0.025927,-0.18195 -0.00397,-0.0423 -0.018769,-0.096 -0.033056,-0.1196 -0.014304,-0.0235 -0.020174,-0.099 -0.013239,-0.16779 0.00693,-0.0688 5.044e-4,-0.1451 -0.014471,-0.16969 -0.014896,-0.0245 -0.023215,-0.14199 -0.018509,-0.261 0.00478,-0.11895 -4.8e-4,-0.23688 -0.011629,-0.26204 -0.024961,-0.0564 -0.023459,-0.51695 0.00179,-0.55301 0.010632,-0.014 0.022099,-0.13186 0.026783,-0.26103 0.00458,-0.12922 0.016374,-0.27562 0.026068,-0.32539 0.029174,-0.14988 0.051065,-0.32677 0.056332,-0.45536 0.00272,-0.0668 0.010228,-0.11335 0.016667,-0.1034 0.00604,0.0101 0.057188,-0.16953 0.1128091,-0.39883 0.05562,-0.22932 0.12485008,-0.47852 0.15390568,-0.55376 0.109063,-0.28236 0.1365995,-0.35919 0.1608333,-0.45055 0.013752,-0.0516 0.038983,-0.0907 0.056179,-0.087 0.017587,0.004 0.021913,-0.009 0.00952,-0.0279 -0.012104,-0.0192 0.011387,-0.0822 0.052159,-0.13998 0.040772,-0.0578 0.067299,-0.11594 0.058849,-0.12934 -0.00846,-0.0134 0.027825,-0.0895 0.080503,-0.16922 0.052191,-0.08 0.086901,-0.15875 0.076623,-0.1753 -0.010576,-0.0168 0.00185,-0.0305 0.027801,-0.0306 0.02557,-2.6e-4 0.037296,-0.0151 0.025521,-0.0334 -0.011389,-0.018 0.030858,-0.10139 0.094196,-0.18506 0.062949,-0.0839 0.1055543,-0.16655 0.094677,-0.18364 -0.010676,-0.017 -3.038e-4,-0.031 0.023063,-0.0312 0.023463,-1.9e-4 0.040188,-0.0155 0.037088,-0.034 -0.0029,-0.0184 0.1088972,-0.18592 0.2492735,-0.37184 0.1400868,-0.18609 0.2721264,-0.36871 0.2934676,-0.40582 0.021294,-0.0371 0.068186,-0.086 0.1041516,-0.10878 0.036063,-0.0227 0.06526,-0.0604 0.065066,-0.0838 -3.768e-4,-0.0434 0.2223124,-0.26467 0.2866401,-0.28487 0.01961,-0.006 0.035321,-0.0332 0.035257,-0.0599 -3.929e-4,-0.0481 0.059808,-0.10643 0.3624236,-0.34938 0.084011,-0.0675 0.159913,-0.13726 0.1685748,-0.15512 0.056928,-0.11762 1.3466795,-0.96747 1.6826047,-1.10938 0.091418,-0.0387 0.2070792,-0.0892 0.2568787,-0.11224 0.085345,-0.0396 0.3077358,-0.128 0.3929518,-0.15625 0.021322,-0.007 0.1060449,-0.0397 0.1883756,-0.0725 0.1410201,-0.0562 0.4722658,-0.15565 0.6100049,-0.18322 0.034358,-0.007 0.084489,-0.0192 0.1115714,-0.0272 0.027081,-0.008 0.071338,-0.0214 0.098337,-0.0295 0.075111,-0.0226 0.260011,-0.0529 0.4634815,-0.0759 0.1009901,-0.0118 0.1963465,-0.0288 0.2119608,-0.0386 0.015866,-0.0101 0.084128,-0.0169 0.1521337,-0.0158 0.068099,7.6e-4 0.1426175,-0.007 0.1656597,-0.0165 0.02301,-0.0101 0.1625477,-0.0178 0.3100119,-0.0168 0.1474677,0.001 0.2631656,-0.006 0.2571057,-0.0158 -0.018085,-0.0286 0.4491371,-0.025 0.5056211,0.004 0.02863,0.0148 0.146412,0.026 0.26176,0.0252 0.2495367,-0.002 0.2441027,-0.002 1.0743522,0.18183 0.359332,0.0798 0.793937,0.20109 0.965783,0.26943 0.171839,0.0683 0.334489,0.12581 0.361449,0.12772 0.02701,0.002 0.03723,0.0112 0.0229,0.0207 -0.01442,0.009 0.02404,0.0304 0.08538,0.0466 0.06134,0.0161 0.204744,0.0837 0.318758,0.14991 0.113955,0.0664 0.219517,0.11285 0.234443,0.10352 0.01549,-0.009 0.02731,0.004 0.02753,0.0296 2.15e-4,0.0256 0.01464,0.0375 0.03202,0.0267 0.01776,-0.0113 0.117494,0.0418 0.222496,0.11711 0.10504,0.0753 0.204263,0.1286 0.220509,0.11841 0.01622,-0.0101 0.0343,-0.006 0.03995,0.0101 0.01042,0.0287 0.03736,0.0486 0.365736,0.27251 0.394535,0.26891 0.647983,0.49579 0.554836,0.49664 -0.03643,2.9e-4 -0.502985,0.52502 -0.620001,0.69716 -0.02643,0.0394 -0.08383,0.099 -0.126971,0.13267 -0.04313,0.0337 -0.07969,0.0773 -0.08132,0.0969 -0.002,0.0194 -0.0564,0.0829 -0.122152,0.14028 -0.06566,0.0575 -0.12066,0.11916 -0.12231,0.13694 -0.0022,0.0175 -0.02964,0.0563 -0.06336,0.085 -0.03323,0.0289 -0.212433,0.23158 -0.398286,0.45019 -0.185896,0.21858 -0.370697,0.41813 -0.410762,0.44341 -0.04011,0.0252 -0.06549,0.0577 -0.05634,0.0722 0.0091,0.0145 -0.02024,0.0534 -0.06455,0.0872 -0.04461,0.0335 -0.100166,0.0949 -0.123664,0.13615 -0.03688,0.0648 -0.06037,0.0627 -0.170669,-0.0148 -0.07044,-0.0495 -0.136347,-0.10318 -0.14654,-0.11928 -0.01019,-0.0161 -0.03361,-0.0201 -0.05205,-0.009 -0.01831,0.0116 -0.03815,0.008 -0.04387,-0.008 -0.03921,-0.10811 -0.897332,-0.52234 -0.977468,-0.47177 -0.01805,0.0113 -0.02944,0.007 -0.0255,-0.0112 0.0065,-0.027 -0.3494895,-0.11601 -0.7459905,-0.1862 -0.2945777,-0.0521 -1.3392396,-0.0425 -1.5738614,0.0149 -0.011707,0.002 -0.05762,0.0125 -0.1032935,0.0218 -0.090049,0.0183 -0.198611,0.0458 -0.2110247,0.0537 -0.00416,0.002 -0.066049,0.0216 -0.1373481,0.042 -0.1387641,0.0398 -0.2883272,0.0954 -0.4652223,0.17294 -0.2076252,0.0911 -0.9254569,0.53658 -1.0091848,0.62645 -0.046072,0.0494 -0.13094,0.13195 -0.1886091,0.18339 -0.2771447,0.24711 -0.8156649,0.93322 -0.7786012,0.99198 0.010721,0.0168 -0.00155,0.0309 -0.026912,0.0313 -0.025571,2.6e-4 -0.035942,0.0174 -0.022725,0.038 0.012999,0.0205 0.00263,0.0376 -0.02391,0.0373 -0.02557,2.4e-4 -0.037982,0.0141 -0.0278,0.0306 0.010576,0.0167 -0.024042,0.0956 -0.076623,0.17531 -0.052192,0.08 -0.087347,0.15728 -0.079346,0.17103 0.00909,0.0144 -0.00576,0.0524 -0.032863,0.0847 -0.1015715,0.12031 -0.2532086,0.92757 -0.2607261,1.38735 -0.011548,0.70586 0.070398,1.2119 0.2642804,1.6321 0.258685,0.56066 0.3137963,0.65964 0.5497673,0.98736 0.1482851,0.20592 0.6062741,0.67505 0.8070858,0.82669 0.1015156,0.0766 0.2291865,0.17345 0.2837132,0.21514 0.05453,0.0416 0.1656833,0.10475 0.2469512,0.14033 0.081267,0.0355 0.175308,0.0877 0.2089002,0.11608 0.033551,0.0283 0.076026,0.0421 0.094276,0.0306 0.018217,-0.0115 0.033419,0 0.033648,0.0255 2.124e-4,0.0256 0.018891,0.0348 0.041445,0.0207 0.022588,-0.0142 0.037601,-0.0101 0.03343,0.008 -0.00419,0.0186 0.022842,0.042 0.060099,0.052 0.037279,0.0101 0.1228971,0.0388 0.1902995,0.064 0.2035303,0.0762 0.7093151,0.18587 0.7471277,0.16202 0.019813,-0.0121 0.031919,-0.007 0.027705,0.0116 -0.00798,0.0343 1.0758212,0.0662 1.2315232,0.0363 0.04658,-0.009 0.1714467,-0.0282 0.2773497,-0.0427 0.5337327,-0.0731 1.2092695,-0.33058 1.6606685,-0.63319 0.280085,-0.18776 0.281107,-0.18809 0.337566,-0.10542 0.03121,0.0457 0.103248,0.13777 0.160204,0.20482 0.05701,0.067 0.241545,0.28766 0.410198,0.49023 0.168649,0.20257 0.352899,0.42339 0.409438,0.49072 0.0565,0.0672 0.135646,0.16487 0.175785,0.2168 0.04014,0.0519 0.16215,0.19613 0.271105,0.32051 0.108972,0.12436 0.242877,0.28213 0.297598,0.35061 0.207901,0.26018 0.25271,0.31299 0.342821,0.404 0.06798,0.0687 0.08127,0.10184 0.04984,0.1243 -0.02358,0.0168 -0.06872,0.0566 -0.100144,0.0883 -0.06044,0.0608 -1.052641,0.72416 -1.077368,0.72035 z"
       style="fill:#faa402;fill-opacity:1;stroke-width:0.03959274" />
    <path
       style="fill:#c5c5c5;fill-opacity:1;fill-rule:evenodd;stroke:#000000;stroke-width:0.26458335;stroke-linecap:butt;stroke-linejoin:miter;stroke-miterlimit:4;stroke-dasharray:none;stroke-opacity:1"
       d="m 11.209426,287.88182 c 0,0 0.348124,-0.0786 0.907272,0.30263 0.01198,0.12538 0.0175,0.25129 0.01652,0.37723 -0.523662,0.42872 -0.877331,0.38082 -0.877331,0.38082 l -0.480601,-0.0705 c -0.03612,0.2462 -0.111385,0.48504 -0.222951,0.70747 l 0.434187,0.21778 c 0,0 0.317233,0.16352 0.500479,0.81502 -0.07141,0.10375 -0.148117,0.20374 -0.229817,0.29959 -0.676726,-0.008 -0.91686,-0.27221 -0.91686,-0.27221 l -0.322844,-0.36293 c -0.1859244,0.16539 -0.397108,0.29997 -0.6255466,0.39865 l 0.1926196,0.44592 c 0,0 0.1379047,0.32917 -0.140495,0.94604 -0.1213887,0.0336 -0.2444265,0.0609 -0.3686242,0.0818 -0.5131431,-0.44126 -0.5273807,-0.79788 -0.5273807,-0.79788 l -0.014024,-0.48554 c -0.248736,0.007 -0.4970199,-0.0255 -0.7354418,-0.0967 l -0.1390772,0.46541 c 0,0 -0.1059508,0.34081 -0.7157292,0.6344 -0.114569,-0.0523 -0.2263669,-0.11049 -0.3349489,-0.1743 -0.1094539,-0.66787 0.1088664,-0.9502 0.1088664,-0.9502 l 0.3013572,-0.38097 C 6.8238994,290.20894 6.65469,290.02434 6.517845,289.81651 l -0.4056983,0.26712 c 0,0 -0.3002306,0.19297 -0.9560656,0.0259 -0.054141,-0.11371 -0.1023878,-0.23014 -0.1445474,-0.34882 0.34545,-0.58197 0.6941738,-0.65792 0.6941738,-0.65792 l 0.4757302,-0.0981 c -0.050268,-0.24371 -0.061228,-0.49389 -0.032465,-0.74106 l -0.4824886,-0.0562 c 0,0 -0.3540293,-0.0452 -0.7490484,-0.59469 0.03162,-0.12191 0.0695,-0.24211 0.1134896,-0.36013 0.6387139,-0.22376 0.9546694,-0.0578 0.9546694,-0.0578 l 0.4275039,0.23062 c 0.1181461,-0.219 0.2705638,-0.4177 0.4514767,-0.58855 l -0.3335172,-0.35315 c 0,0 -0.2421737,-0.26216 -0.1915431,-0.93704 0.1025856,-0.0731 0.2088677,-0.1408 0.3184235,-0.20293 0.6331165,0.23915 0.7684646,0.56939 0.7684646,0.56939 l 0.1792437,0.45146 c 0.2312782,-0.0918 0.4757557,-0.14606 0.724167,-0.16066 l -0.028489,-0.4849 c 0,0 -0.017002,-0.3565 0.4555874,-0.84094 0.1255505,0.01 0.2505039,0.0264 0.3743634,0.0492 0.3312769,0.59015 0.2226868,0.93013 0.2226868,0.93013 l -0.1528866,0.46106 c 0.2361925,0.0783 0.4583361,0.19392 0.6580115,0.34241 l 0.2898686,-0.38977 c 0,0 0.216125,-0.28402 0.889544,-0.35135 0.08977,0.0883 0.174926,0.18125 0.255134,0.27835 -0.12557,0.66502 -0.427288,0.85566 -0.427288,0.85566 l -0.41348,0.25492 c 0.13059,0.21182 0.226456,0.44316 0.283965,0.68527 l 0.472595,-0.11226"
       id="path1399"
       inkscape:connector-curvature="0"
       inkscape:path-effect="#path-effect1401"
       inkscape:original-d="m 11.66333,288.39329 -3.1966637,0.14004 v 0"
       sodipodi:nodetypes="ccc" />
    <circle
       style="fill:#c5c5c5;fill-opacity:1;stroke:#000000;stroke-width:0.26458335;stroke-linecap:round;stroke-linejoin:round;stroke-miterlimit:4;stroke-dasharray:none;stroke-dashoffset:0;stroke-opacity:1"
       id="path1403"
       cx="8.4666672"
       cy="288.53333"
       r="0.46772167" />
  </g>
</svg>
